<svg xmlns="http://www.w3.org/2000/svg" xmlns:xlink="http://www.w3.org/1999/xlink" viewBox="0 0 1529.79 440.5"><defs><style>.cls-1{fill:url(#linear-gradient);}.cls-2{fill:url(#linear-gradient-2);}.cls-3{fill:url(#linear-gradient-3);}.cls-4{fill:url(#linear-gradient-4);}.cls-5{fill:url(#linear-gradient-5);}.cls-6{fill:url(#linear-gradient-6);}.cls-7{fill:url(#linear-gradient-7);}.cls-8{fill:url(#linear-gradient-8);}.cls-9{fill:#7451eb;}.cls-10{fill:#2e254d;}.cls-11{fill:#d3d3d3;}</style><linearGradient id="linear-gradient" x1="419.56" y1="569.57" x2="760.1" y2="569.57" gradientUnits="userSpaceOnUse"><stop offset="0" stop-color="#7451eb" stop-opacity="0.3"/><stop offset="0.16" stop-color="#7451eb" stop-opacity="0.48"/><stop offset="0.35" stop-color="#7451eb" stop-opacity="0.67"/><stop offset="0.53" stop-color="#7451eb" stop-opacity="0.81"/><stop offset="0.71" stop-color="#7451eb" stop-opacity="0.92"/><stop offset="0.87" stop-color="#7451eb" stop-opacity="0.98"/><stop offset="1" stop-color="#7451eb"/></linearGradient><linearGradient id="linear-gradient-2" x1="506.54" y1="741.55" x2="508.88" y2="741.55" gradientUnits="userSpaceOnUse"><stop offset="0" stop-color="#7451eb" stop-opacity="0.6"/><stop offset="1" stop-color="#7451eb"/></linearGradient><linearGradient id="linear-gradient-3" x1="697.69" y1="397.23" x2="753.25" y2="397.23" xlink:href="#linear-gradient"/><linearGradient id="linear-gradient-4" x1="236.75" y1="418.4" x2="251.28" y2="418.4" xlink:href="#linear-gradient-2"/><linearGradient id="linear-gradient-5" x1="217.38" y1="425.13" x2="225.67" y2="425.13" xlink:href="#linear-gradient-2"/><linearGradient id="linear-gradient-6" x1="433.76" y1="752.88" x2="466.66" y2="752.88" xlink:href="#linear-gradient-2"/><linearGradient id="linear-gradient-7" x1="471.86" y1="730.87" x2="504.77" y2="730.87" xlink:href="#linear-gradient-2"/><linearGradient id="linear-gradient-8" x1="433.76" y1="711.61" x2="466.66" y2="711.61" xlink:href="#linear-gradient-2"/></defs><title>logo</title><g id="Layer_4" data-name="Layer 4"><path class="cls-1" d="M759.47,618.48a78.84,78.84,0,0,1-1.12,7.82c-31.47,103.19-155.72,82.55-155.72,82.55-30.71,14.57-82,29.14-93.69,32.36,16.27-5.69,103.62-46.11,103.62-46.11,3.32,2.74,44.73-1.38,44.73-1.38C690.43,688.22,702,669,702,669c11.6-15.13-1.65-15.13-1.65-15.13-1.66,0,0-2.75,0-2.75,11.6-11,0-16.51,0-16.51,11.14-9.25,8-16.44,4-20.64a22.71,22.71,0,0,0-5.62-4.13c8.58-10,7.39-16.23,4.25-20A17,17,0,0,0,695.4,585c-3.55-1-18.94.85-27.44,2h0c-3.4.45-5.69.78-5.69.78.33-.4.62-.79.9-1.17,11.14-15.14-12.5-11.21-12.5-11.21-12,1.81-20.76,4.81-27.12,8-13,6.56-16,14-16,14l-3.83,8.2-11.9,25.51c-42.32,38.24-118.3,55.52-153.47,61.75-2.43.43-4.66.8-6.67,1.14h-.2c-7.53,1.23-12,1.75-12,1.75,1.66-.36,3.31-.73,4.93-1.1h0q8.46-1.92,16.14-3.95c102.52-26.94,104-65.8,104-65.8a233.35,233.35,0,0,1,.13-24.19c.43-8.26,1.15-16.41,1.92-23.5,1.4-13,2.92-22.47,2.92-22.47,5.28-46,34.75-61.52,46.51-65.9h0c3.67-2,7.21-3.32,9.8-2.89,0,0-26.51,15.14-13.26,34.4,0,0,10,15.13,34.79,9.63,0,0,11.6-1.37,18.23-17.88,0,0,5-5.51,0-34.4,0,0-16.56-57.75,39.7-79.77l.05,0h0C670.55,458.46,725.22,508,725.22,508c25.17,31.36,32.78,63.53,34.47,86.39A139.56,139.56,0,0,1,759.47,618.48Z" transform="translate(-197.21 -319.5)"/><path class="cls-2" d="M506.54,741.87l2.34-.64A10.12,10.12,0,0,1,506.54,741.87Z" transform="translate(-197.21 -319.5)"/><path class="cls-3" d="M728.53,475s-13.25-19.26,14.91-67.42-13.25-88.05-13.25-88.05S736.81,349.77,707,391,728.53,475,728.53,475Z" transform="translate(-197.21 -319.5)"/><ellipse class="cls-4" cx="244.02" cy="418.4" rx="7.26" ry="6.03"/><ellipse class="cls-5" cx="221.53" cy="425.13" rx="4.14" ry="3.44"/><path class="cls-6" d="M465.64,749.67l-28.91,10.22a1.83,1.83,0,0,1-2.21-.74l-.63-1.22a1.33,1.33,0,0,1,.89-1.84l28.91-10.22a1.83,1.83,0,0,1,2.21.74l.63,1.22A1.32,1.32,0,0,1,465.64,749.67Z" transform="translate(-197.21 -319.5)"/><path class="cls-7" d="M503.74,727.66l-28.91,10.21a1.81,1.81,0,0,1-2.21-.74l-.62-1.22a1.31,1.31,0,0,1,.89-1.83l28.91-10.22a1.84,1.84,0,0,1,2.21.74l.62,1.22A1.32,1.32,0,0,1,503.74,727.66Z" transform="translate(-197.21 -319.5)"/><path class="cls-8" d="M465.64,708.4l-28.91,10.21a1.82,1.82,0,0,1-2.21-.74l-.63-1.22a1.32,1.32,0,0,1,.89-1.83l28.91-10.22a1.83,1.83,0,0,1,2.21.74l.63,1.22A1.33,1.33,0,0,1,465.64,708.4Z" transform="translate(-197.21 -319.5)"/></g><g id="Layer_1" data-name="Layer 1"><path class="cls-9" d="M401.52,588.66l-.24,0q-4.86,29-21.43,43.51t-42.72,12.72q-25.72-1.79-41.32-20.68t-13.71-46Q284,550,302.43,533t44.72-15.22q41.33,2.87,53,49.26h1.39l18.38,0,68.75.17q-8.22-51.87-34.59-82.39Q416,440.66,354.81,436.43q-62.19-4.31-107.55,34.9t-49.63,101q-3.7,53.51,25.29,94l-.66-1.14c81.19,27.83,148.42,33.93,202.23,29.45h0c2.36-.21,4.7-.42,7-.65h.2q3.12-.33,6.19-.69l.48-.45c.76-.7,1.52-1.41,2.27-2.14q34.57-33.47,46.56-93.9l-66.9-6.37Z" transform="translate(-197.21 -319.5)"/><path class="cls-10" d="M1023,640.25v90.21h84.19V647.2Zm64.15-108.08q-25.44-30.63-67.53-30.62-33.08,0-66.17,31.51-29.7-31.51-67.07-31.51-36.26,0-61.68,26.45t-25.43,64.26v5.3l84.35,6.79q1.38-19.74,13.78-19.74,7.65,0,10.7,5.4,2.71,4.85,3,16.54l84.23,6.78v-3.74q0-25,14.18-25,7.65,0,10.58,5.4t2.92,19.36v6.2l84.19,6.77V601.72Q1107.16,556,1087.12,532.17Zm-287.88,89.6V730.46h84.17V628.71ZM911.1,631v99.46h84.19V638Z" transform="translate(-197.21 -319.5)"/><path class="cls-10" d="M1352.39,535.76q-33.89-34.2-81.38-34.21-7.65,0-22.5,1.35v92.74q11.91-8.11,21.16-8.11a29.48,29.48,0,0,1,22,9.34q9,9.35,9,23.08a30.19,30.19,0,0,1-5.28,17.53l88.1,7.09a125.86,125.86,0,0,0,2.7-26.43Q1386.25,570,1352.39,535.76ZM1156.55,651.28a111.35,111.35,0,0,0,22,42.94Q1194,712.91,1218,723.94a116.64,116.64,0,0,0,49.17,11q50.21,0,84.64-33.76A114.83,114.83,0,0,0,1375,669.33Zm79.13-44.17V423.22h-84.19v187q0,8.09.67,15.69l87.47,7Q1235.67,622.81,1235.68,607.11Z" transform="translate(-197.21 -319.5)"/><path class="cls-10" d="M1613.7,533.4q-31.38-31.86-85.86-31.85-48.85,0-82.95,34t-34.09,82.83a129.92,129.92,0,0,0,3,28.65l134,10.77V646.28a38.21,38.21,0,0,1-20.49,5.85q-13.5,0-22.28-9t-8.78-23A33.08,33.08,0,0,1,1529,587.53q14.63,0,23.3,10.58t8.66,28.36v32.38l84.19,6.77V620.39Q1645.11,565.25,1613.7,533.4ZM1423.36,673.32a112.4,112.4,0,0,0,21.19,28.56q33.78,33.3,84.41,33.31a111.09,111.09,0,0,0,18.91-1.8V683.61Zm137.56,11.37v45.77h84.19V691.64Z" transform="translate(-197.21 -319.5)"/><polygon class="cls-11" points="222.69 247.53 204.31 247.49 204.31 246.06 222.69 247.53"/><polygon class="cls-11" points="204.31 269.16 223.11 270.96 204.31 269.4 204.31 269.16"/><path class="cls-10" d="M1295.45,637.48a33.29,33.29,0,0,1-27.58,14.43q-20.92,0-28.24-18.92Z" transform="translate(-197.21 -319.5)"/><circle class="cls-10" cx="1501.29" cy="382" r="28.5"/></g></svg>